<svg width="362" height="362" viewBox="0 0 362 362" fill="none" xmlns="http://www.w3.org/2000/svg">
	<g clip-path="url(#clip0_102_228)">
		<path d="M290.3 0H71C52.1696 0 34.1105 7.48034 20.7954 20.7954C7.48034 34.1105 0 52.1696 0 71V290.3C0 309.13 7.48034 327.189 20.7954 340.505C34.1105 353.82 52.1696 361.3 71 361.3H290.3C309.13 361.3 327.189 353.82 340.505 340.505C353.82 327.189 361.3 309.13 361.3 290.3V71C361.3 52.1696 353.82 34.1105 340.505 20.7954C327.189 7.48034 309.13 0 290.3 0ZM307.43 56.05C307.077 59.6147 305.877 63.0433 303.93 66.05C301.321 69.703 297.897 72.6987 293.93 74.8C289.266 77.3007 284.233 79.0394 279.02 79.95C272.937 81.0955 266.76 81.6647 260.57 81.65H256.03C254.5 81.6519 252.973 81.5383 251.46 81.31C250.46 87.03 249.683 93.4067 249.13 100.44C248.577 107.473 248.297 115.397 248.29 124.21V179.81H273.29L269.35 190.32H248.29V232.54C248.29 242.153 248.167 250.533 247.92 257.68C247.774 264.074 247.105 270.445 245.92 276.73C244.931 281.909 243.249 286.93 240.92 291.66C238.445 296.398 235.307 300.759 231.6 304.61C224.767 311.817 215.263 317.71 203.09 322.29C190.917 326.87 176.103 329.15 158.65 329.13C148.322 329.178 138.037 327.792 128.09 325.01C119.055 322.551 110.468 318.673 102.65 313.52C95.634 308.921 89.6646 302.897 85.13 295.84C80.7927 289.025 78.5277 281.098 78.61 273.02C78.4992 267.282 79.5999 261.584 81.84 256.3C83.9374 251.493 86.8013 247.059 90.32 243.17C93.7084 239.41 97.559 236.093 101.78 233.3C105.67 230.712 109.748 228.419 113.98 226.44C117.492 224.79 121.102 223.358 124.79 222.15C128.02 221.15 130.45 220.44 132.06 220.09L135.78 227.09C132.449 228.725 129.231 230.582 126.15 232.65C122.42 235.15 119.055 238.156 116.15 241.58C110.462 248.706 106.815 257.243 105.6 266.28C104.385 275.317 105.646 284.514 109.25 292.89C111.891 298.669 115.81 303.774 120.71 307.82C125.888 312.022 131.841 315.169 138.23 317.08C145.457 319.278 152.977 320.361 160.53 320.29C168.944 320.383 177.325 319.227 185.4 316.86C192.678 314.704 199.298 310.753 204.65 305.37C209.983 299.99 214.143 292.84 217.13 283.92C220.117 275 221.623 263.91 221.65 250.65V190.3H185.5L189.22 179.83H221.65V148.05C221.65 134.317 222.113 121.817 223.04 110.55C223.846 99.8953 225.945 89.3781 229.29 79.23C219.47 77.8567 209.407 76.2267 199.1 74.34C188.793 72.4533 178.7 70.65 168.82 68.93C158.94 67.2167 149.56 65.76 140.68 64.56C132.749 63.4306 124.751 62.8293 116.74 62.76C107.173 62.76 99.2233 63.4733 92.89 64.9C87.5273 65.962 82.3776 67.9049 77.65 70.65C74.2203 72.6084 71.4101 75.4914 69.54 78.97C67.9988 82.0777 67.2012 85.5011 67.21 88.97C67.1815 92.4179 68.1167 95.8051 69.91 98.75C71.875 101.898 74.5196 104.567 77.65 106.56C81.3417 108.941 85.3939 110.711 89.65 111.8C94.7196 113.096 99.9379 113.718 105.17 113.65C110.856 113.722 116.528 113.049 122.04 111.65C126.359 110.559 130.577 109.104 134.65 107.3C138.492 105.629 142.119 103.501 145.45 100.96L149.18 108.33C145.174 111.037 140.934 113.379 136.51 115.33C132.033 117.378 127.394 119.051 122.64 120.33C116.95 121.813 111.089 122.536 105.21 122.48C97.7343 122.601 90.2852 121.559 83.13 119.39C77.2927 117.622 71.829 114.799 67.01 111.06C62.8239 107.78 59.4472 103.582 57.14 98.79C54.9089 94.1302 53.7603 89.0263 53.78 83.86C53.7771 78.2818 54.8219 72.7526 56.86 67.56C59.0582 62.0932 62.5804 57.2584 67.11 53.49C71.89 49.37 78.1933 46.08 86.02 43.62C93.8467 41.16 103.473 39.93 114.9 39.93C125.534 39.9592 136.152 40.7613 146.67 42.33C157.297 43.87 167.797 45.7567 178.17 47.99C188.543 50.2233 198.667 52.6267 208.54 55.2C218.413 57.7733 227.887 60.1067 236.96 62.2C241.916 53.5782 248.723 46.1633 256.89 40.49C264.481 35.1695 273.53 32.3231 282.8 32.34C286.421 32.2799 290.021 32.8902 293.42 34.14C296.299 35.2099 298.952 36.811 301.24 38.86C303.28 40.7176 304.89 42.9971 305.96 45.54C307.283 48.8755 307.787 52.4795 307.43 56.05Z" fill="#6C63FF" />
		<path d="M292.27 45.21C289.7 42.811 286.283 41.5305 282.77 41.65C277.124 41.6688 271.658 43.6403 267.3 47.23C262.58 50.9433 258.667 57.2767 255.56 66.23C259.407 66.7967 263.133 67.2533 266.74 67.6C270.34 67.94 273.74 68.12 276.99 68.12C279.929 68.1826 282.857 67.7465 285.65 66.83C287.816 66.1274 289.814 64.9872 291.52 63.48C292.952 62.1893 294.097 60.6118 294.88 58.85C295.601 57.2281 295.979 55.4748 295.99 53.7C296.013 52.1013 295.692 50.5162 295.05 49.0517C294.409 47.5872 293.461 46.2772 292.27 45.21Z" fill="#6C63FF" />
	</g>
	<defs>
		<clipPath id="clip0_102_228">
			<rect width="361.3" height="361.3" fill="white" />
		</clipPath>
	</defs>
</svg>
